<?xml version="1.0" encoding="UTF-8"?>
<svg width="49px" height="49px" viewBox="0 0 49 49" version="1.1" xmlns="http://www.w3.org/2000/svg" xmlns:xlink="http://www.w3.org/1999/xlink">
    <!-- Generator: Sketch 52.2 (67145) - http://www.bohemiancoding.com/sketch -->
    <title>关闭 (2)</title>
    <desc>Created with Sketch.</desc>
    <g id="飞鸟纪" stroke="none" stroke-width="1" fill="none" fill-rule="evenodd">
        <g id="4_1详情下单说明" transform="translate(-163.000000, -539.000000)" fill="#EEEEEE" fill-rule="nonzero">
            <g id="弹窗">
                <g id="关闭-(2)" transform="translate(163.000000, 539.000000)">
                    <path d="M24.4965209,0 C10.9905567,0 0,10.9913371 0,24.4982603 C0.0153383963,38.0238386 10.9753821,48.9846605 24.5,49 C38.0246179,48.9846605 48.9846616,38.0238386 49,24.4982603 C48.9808287,10.9734781 38.0203477,0.0153315198 24.4965209,0 Z M24.4965209,47.3855713 C11.8812127,47.3855713 1.61779324,37.1179436 1.61779324,24.4947809 C1.63313311,11.8652347 11.8678692,1.63132837 24.4965209,1.61790812 C37.1251726,1.63132837 47.3599086,11.8652347 47.3752485,24.4947809 C47.3656639,37.1289684 37.1298056,47.3702235 24.4965209,47.3855713 Z" id="Shape"></path>
                    <path d="M33.8398639,16.15986 C33.7383086,16.0575436 33.6001238,16 33.455977,16 C33.3118302,16 33.1736453,16.0575436 33.0720901,16.15986 L24.9999951,24.2299368 L16.93139,16.15986 C16.7948638,16.0226853 16.59554,15.9687799 16.4085019,16.0184493 C16.2214637,16.0681187 16.0751269,16.213817 16.0246149,16.400661 C15.974103,16.587505 16.02709,16.7871087 16.1636162,16.9242833 L24.2322213,24.9978506 L16.1601263,33.071418 C16.0576183,33.1735892 16,33.3123767 16,33.4571202 C16,33.6018637 16.0576183,33.7406511 16.1601263,33.8428224 C16.2683126,33.9510284 16.4044179,33.9998957 16.5440132,33.9998957 C16.6836084,33.9998957 16.8232037,33.9510284 16.9279001,33.8428224 L24.9999951,25.769255 L33.0720901,33.8428224 C33.1742789,33.9460023 33.3142894,34.0027737 33.4594669,33.9998957 C33.6011807,34.0007235 33.7371751,33.9440489 33.836374,33.8428224 C33.938882,33.7406511 33.9965003,33.6018637 33.9965003,33.4571202 C33.9965003,33.3123767 33.938882,33.1735892 33.836374,33.071418 L25.7712588,24.9978506 L33.8433538,16.9277738 C34.0535692,16.7144152 34.0520098,16.3712984 33.8398639,16.15986 Z" id="Shape"></path>
                </g>
            </g>
        </g>
    </g>
</svg>