<?xml version="1.0" encoding="UTF-8"?>
<svg width="22px" height="22px" viewBox="0 0 22 22" version="1.1" xmlns="http://www.w3.org/2000/svg" xmlns:xlink="http://www.w3.org/1999/xlink">
    <!-- Generator: Sketch 52.2 (67145) - http://www.bohemiancoding.com/sketch -->
    <title>首页icon-on</title>
    <desc>Created with Sketch.</desc>
    <g id="首页icon-on" stroke="none" stroke-width="1" fill="none" fill-rule="evenodd">
        <g id="首页icon" fill="#2987F6">
            <path d="M17.5928101,11.0320089 C19.0832747,10.5713817 20.3135516,9.94818019 21.6709097,9.19654498 C21.8976838,9.07082085 22.1178847,9.37158332 21.9278108,9.54716357 C19.816777,11.5028903 17.4855365,13.2121035 14.9799781,14.6411585 C14.9109243,14.6783337 14.826746,14.6746488 14.7612809,14.6315851 C14.6958159,14.5885214 14.6598161,14.5131517 14.6677528,14.435773 C14.7054959,13.5842492 14.8411192,12.739746 15.0720023,11.9185808 C15.181555,11.5208156 15.360126,10.9864881 15.5693716,10.6179863 C15.6487973,10.4781724 15.8284638,10.4592054 15.9035074,10.6017289 C16.0401877,10.8615664 16.2801951,11.0532503 16.5657535,11.1306373 C16.8544249,11.2059634 17.5928101,11.0320089 17.5928101,11.0320089 Z" id="Path"></path>
            <path d="M3.39922318,6.80844011 C3.42152722,6.71336381 3.38603587,6.61420258 3.30798961,6.5535376 C3.22994335,6.49287263 3.12322979,6.48149869 3.0336732,6.52429991 C2.54942513,6.74571503 2.07910824,6.99521972 1.62523062,7.27148341 C1.2841701,7.47961903 0.804535077,7.83567126 0.407327989,8.14085889 C0.31739527,8.20967801 0.191438131,8.2107469 0.100299892,8.14346439 C0.00916165373,8.07618188 -0.0244033595,7.95734626 0.0184831551,7.85379543 C0.287167936,7.22811683 0.60675745,6.62457101 0.974169382,6.04897895 C3.41795179,2.21889063 7.73472168,-0.0762893349 12.3474328,0.00193752161 C12.5767975,0.00622495954 12.8065604,0.0163589037 13.0367215,0.0323393542 C13.1447008,0.0399326078 13.2365549,0.112262535 13.2672598,0.213875325 C13.2979648,0.315488114 13.2610853,0.425087547 13.1746987,0.488951493 C13.006259,0.612897426 12.8330409,0.743859166 12.7105936,0.843834423 C9.72670191,3.29657211 8.0074682,6.91807931 8.01638227,10.7320305 C8.01638227,10.7519086 8.01638227,10.7717867 8.01638227,10.7904955 C8.04206633,13.9949656 9.73721478,16.9667447 12.4364311,18.7768231 C13.0188024,19.1673697 13.6053548,19.5123136 14.114855,19.7216185 C14.6456193,19.9397924 15.1903148,20.1239561 15.7454946,20.272944 C17.1004669,20.6377015 18.506562,20.7867424 19.9098974,20.7143553 C20.1900329,20.699739 20.2682797,21.0815159 20.0066606,21.1820758 C17.2485519,22.2241024 14.2017158,22.2719733 11.4108603,21.3171301 C5.51487357,19.3199635 2.00272668,13.2448589 3.28752736,7.26856016 C3.32336559,7.11460216 3.36059753,6.96122881 3.39922318,6.80844011 Z" id="Path"></path>
            <path d="M18.1018791,0.0162565693 C18.1773989,-0.0212231574 18.2673494,0.00804981353 18.31019,0.0840481067 C18.3530306,0.1600464 18.3348955,0.258172346 18.2681921,0.311292167 C18.023357,0.502777148 17.7820195,0.701326624 17.5441797,0.906940594 C14.5106726,3.546087 13.1056687,7.53269276 12.5369517,11.1813182 C12.2935113,12.7367328 12.245348,14.3196152 12.3937232,15.8885024 C12.4042161,16.0000471 12.4157583,16.1115917 12.4283499,16.2231364 C12.4383727,16.3167856 12.3977431,16.4084128 12.3234114,16.4597923 C12.2490796,16.5111717 12.1538152,16.5134768 12.0773612,16.465746 C11.9404284,16.3804143 11.8003478,16.2889477 11.7101085,16.2192323 C10.3355342,15.15175 9.40638495,13.5282177 9.2159382,11.7089244 C9.2159382,11.6960968 9.2159382,11.6827114 9.21174103,11.6693261 C9.13475521,10.8997422 9.15646418,10.1226079 9.27627257,9.35923639 C9.32873724,9.01679432 9.47406437,8.46409058 9.56115572,8.14339972 C9.60292568,7.98397551 9.65266285,7.82703247 9.71015538,7.67323902 C9.95636858,7.05110833 10.2999803,6.47783236 10.726396,5.97776035 C10.9918672,5.66041582 12.9472254,3.13671813 17.2844796,0.456300211 C17.5058805,0.322446632 17.7949608,0.168515016 18.1018791,0.0162565693 Z" id="Path"></path>
        </g>
    </g>
</svg>