<?xml version="1.0" encoding="UTF-8"?>
<svg width="22px" height="22px" viewBox="0 0 22 22" version="1.1" xmlns="http://www.w3.org/2000/svg" xmlns:xlink="http://www.w3.org/1999/xlink">
    <!-- Generator: Sketch 52.2 (67145) - http://www.bohemiancoding.com/sketch -->
    <title>发布icon-on</title>
    <desc>Created with Sketch.</desc>
    <g id="发布icon-on" stroke="none" stroke-width="1" fill="none" fill-rule="evenodd">
        <path d="M21.942077,0.415256275 C21.9063895,0.349860897 21.7606654,0.125648171 21.4216339,0.0353402672 C20.9904096,-0.0767660958 20.4372529,0.0789371861 19.7948774,0.486879785 L0.687180067,11.074703 C0.52361223,11.1525546 -0.0117006922,11.4515049 0.000195150546,11.977782 C0.00911703258,12.3296714 0.247033887,12.6068232 0.731789477,12.8092375 L6.77487758,14.9018896 L7.67598766,15.2880338 L17.5287194,5.12372352 L9.8737446,16.2315956 L11.1168602,16.7672149 L17.18374,18.8785514 C17.3443338,18.9564031 17.5197975,18.9968859 17.6952612,19 C17.858829,19 18.0194229,18.9595171 18.165147,18.8816655 C18.5696056,18.6605668 18.8164444,18.1716585 18.8848455,17.4678797 L21.9896604,0.748461298 C22.0134521,0.63324087 21.9956083,0.514906375 21.942077,0.415256275 Z M12.7598111,18.8323487 L10.6701727,18.0210725 C10.5666201,17.9805087 10.4551019,17.9992305 10.3648253,18.0709972 C10.2745487,18.1427639 10.2161344,18.2582148 10.2081688,18.3830265 L10.0010636,21.5532442 C9.99309799,21.6718154 10.0302707,21.7872662 10.0993058,21.8746344 C10.170996,21.9588823 10.2665831,22.0056867 10.3701357,21.9994461 C10.4497915,21.9963258 10.5267922,21.9588823 10.5852065,21.8964765 L12.8792949,19.5375349 C12.9748819,19.4408058 13.017365,19.2879115 12.9934683,19.144378 C12.9695715,18.9977242 12.8792949,18.8791531 12.7598111,18.8323487 Z" id="Shape" fill="#2987F6" fill-rule="nonzero"></path>
    </g>
</svg>