<?xml version="1.0" encoding="UTF-8"?>
<svg width="23px" height="22px" viewBox="0 0 23 22" version="1.1" xmlns="http://www.w3.org/2000/svg" xmlns:xlink="http://www.w3.org/1999/xlink">
    <!-- Generator: Sketch 52.2 (67145) - http://www.bohemiancoding.com/sketch -->
    <title>我的icon-off</title>
    <desc>Created with Sketch.</desc>
    <g id="我的icon-off" stroke="none" stroke-width="1" fill="none" fill-rule="evenodd">
        <g id="Group-3" fill="#D2D2D2">
            <path d="M18,5.99893399 C18,9.31362536 15.3157616,12 12.0010692,12 C8.68637677,12 6.00000127,9.3157625 6.00000127,6.00107112 C5.99786414,2.68851687 8.68423964,5.1056522e-06 11.9967949,5.1056522e-06 L11.9989321,5.1056522e-06 C15.3093502,-0.00426915789 17.9957257,2.67569408 18,5.98397406 L18,5.99893399 Z" id="Path"></path>
            <path d="M2.19273092,22.0000001 C1.35580486,22.0000001 1.00043318,21.4082547 1.00043318,20.5753357 L1.00043318,20.5877674 C1.00043318,18.3371421 0.853396811,15.5171718 2.19273092,14 C3.71641851,12.2739962 5.4003466,12.2739962 8.15029248,13 C9.25027084,13.3333333 10.3502492,13.5 11.4502275,13.5 C12.5502059,13.5 13.833514,13.3333333 15.3001518,13 C17.5001085,12.2739962 19.5067651,12.0015363 21.1613381,13.5 C22.8866587,15.0625363 23.0000003,18.172946 23.0000003,20.6275486 L23.0000003,20.5604178 C22.9974251,21.3933368 21.995689,22.0000001 21.1613381,22.0000001 L2.19273092,22.0000001 Z" id="Path"></path>
        </g>
        <path d="M9,7.85576905 C11.305496,9.1391047 13.4188674,8.92521543 15.3401141,7.21410122 C16.0188681,6.60958455 16.54673,5.93076556 16.54673,6.00569218 C16.54673,6.61728705 15.1901183,9.94250366 13.034618,10.4224404 C11.1133714,10.8502189 9.76849867,9.99466181 9,7.85576905 Z" id="Path-2" fill="#FFFFFF" fill-rule="nonzero"></path>
    </g>
</svg>