<?xml version="1.0" encoding="UTF-8"?>
<svg width="22px" height="22px" viewBox="0 0 22 22" version="1.1" xmlns="http://www.w3.org/2000/svg" xmlns:xlink="http://www.w3.org/1999/xlink">
    <!-- Generator: Sketch 52.2 (67145) - http://www.bohemiancoding.com/sketch -->
    <title>发现icon-off</title>
    <desc>Created with Sketch.</desc>
    <g id="发现icon-off" stroke="none" stroke-width="1" fill="none" fill-rule="evenodd">
        <g id="放大镜">
            <path d="M10.5380647,21.0434662 C4.72614261,21.0521699 0.00871579739,16.3478014 1.20578826e-05,10.5380586 C-0.00869168163,4.7261399 4.69567952,0.0087157924 10.5054256,1.20578756e-05 C16.3173477,-0.00869167665 21.0347745,4.69567683 21.0434783,10.5054196 L21.0434783,10.5206512 C21.0434783,16.3260421 16.341283,21.0347625 10.5380647,21.0434662 Z" id="Shape" fill="#D2D2D2" fill-rule="nonzero"></path>
            <path d="M21.2651228,22 C21.0718378,21.9979477 20.8888338,21.9179066 20.753123,21.7804002 L17.2143614,18.2503848 C16.9285462,17.9651103 16.9285462,17.5012827 17.2143614,17.2139559 C17.5001765,16.9286814 17.9648832,16.9286814 18.2527545,17.2139559 L21.7915162,20.7460236 C22.0732189,21.0333504 22.0691064,21.4951257 21.7812351,21.7783479 C21.6475805,21.9096973 21.4666328,21.9835813 21.2795164,21.987686 L21.2651228,22 Z" id="Shape" fill="#D2D2D2" fill-rule="nonzero"></path>
            <path d="M8.98571187,2.01172444 C9.04475465,1.9846936 9.11507954,2.00580562 9.1485731,2.06061652 C9.18206667,2.11542741 9.16788836,2.18619704 9.11573841,2.2245077 C8.92432185,2.362609 8.73563981,2.5058053 8.5496923,2.6540966 C6.17804116,4.55748114 5.07958357,7.43266978 4.63495025,10.0641029 C4.44462414,11.1858869 4.40696912,12.3274809 4.52297157,13.4589815 C4.53117514,13.5394289 4.54019906,13.6198762 4.55004334,13.7003236 C4.55787937,13.7678645 4.52611445,13.8339472 4.46800053,13.8710027 C4.4098866,13.9080582 4.33540711,13.9097207 4.27563403,13.8752966 C4.16857749,13.8137544 4.05905987,13.7477875 3.9885092,13.6975079 C2.91384195,12.9276267 2.18741612,11.7567154 2.03852138,10.4446189 C2.03852138,10.4353675 2.03852138,10.4257138 2.03523996,10.4160601 C1.97505104,9.86102686 1.99202351,9.3005481 2.08569189,8.7499953 C2.12670972,8.5030219 2.24032912,8.10440524 2.30841873,7.87311908 C2.34107525,7.7581404 2.37996067,7.64495117 2.42490938,7.53403345 C2.61740334,7.08534522 2.88604524,6.67189161 3.21942481,6.31123358 C3.42697505,6.08236085 4.95570971,4.26223933 8.34665403,2.32908927 C8.51974928,2.23255244 8.74575755,2.12153508 8.98571187,2.01172444 Z" id="Path" fill="#FFFFFF"></path>
        </g>
    </g>
</svg>