<?xml version="1.0" encoding="UTF-8"?>
<svg width="22px" height="21px" viewBox="0 0 22 21" version="1.1" xmlns="http://www.w3.org/2000/svg" xmlns:xlink="http://www.w3.org/1999/xlink">
    <!-- Generator: Sketch 52.2 (67145) - http://www.bohemiancoding.com/sketch -->
    <title>消息icon-off</title>
    <desc>Created with Sketch.</desc>
    <g id="消息icon-off" stroke="none" stroke-width="1" fill="none" fill-rule="evenodd">
        <g id="信息" fill="#D2D2D2" fill-rule="nonzero">
            <path d="M19.4615385,0 L2.53846154,0 C1.13729566,0.00188610821 0.00189988856,1.12904658 0,2.52004947 L0,14.9603133 C0.00189988856,16.3513162 1.13729566,17.4784766 2.53846154,17.4803628 L9.11089047,17.4803628 L8.5,21 C8.83295011,20.8359238 8.99961678,20.7538856 9,20.7538856 L12.8891095,17.4803628 L19.4615385,17.4803628 C20.8627043,17.4784766 21.9981001,16.3513162 22,14.9603133 L22,2.52004947 C21.9981001,1.12904658 20.8627043,0.00188610821 19.4615385,0 Z M11.2717397,7.4213704 C13.3524023,8.11146331 15.2598981,8.40966735 17.414533,8.66711735 C17.7746243,8.70996395 17.7935521,9.22389439 17.4368274,9.2664002 C13.4704752,9.74481441 9.44275768,9.76989088 5.43295781,9.34113601 C5.32417533,9.32685097 5.22989376,9.25470012 5.18801236,9.15368661 C5.14613095,9.0526731 5.16352832,8.93938741 5.23321107,8.85936804 C5.94279536,7.93869906 6.75986787,7.10498106 7.66864102,6.37432321 C8.10620516,6.01855224 8.73024649,5.56601955 9.25999387,5.32351049 C9.46102717,5.23152835 9.68324392,5.35555197 9.65838904,5.57540617 C9.61292183,5.97611918 9.74002716,6.38421408 10.0091075,6.70145179 C10.2833929,7.01890332 11.2717397,7.4213704 11.2717397,7.4213704 Z" id="Shape"></path>
        </g>
    </g>
</svg>